<svg width="770" height="480" viewBox="0 0 770 480" fill="none" xmlns="http://www.w3.org/2000/svg">
<path d="M343.195 232.505C338.032 242.207 341.141 245.693 343.029 246.475C343.793 246.791 344.17 247.634 343.819 248.38L337.708 262.535C337.708 262.535 327.057 260.182 308.758 289.676C308.064 290.791 302.953 287.402 305.798 282.546L317.442 262.974C318.091 261.806 317.222 260.375 315.887 260.419L328.628 239.345C330.262 236.649 338.673 222.082 343.643 216.901L354.127 206.347C354.672 205.706 355.55 206.654 355.181 207.409L343.187 232.496L343.195 232.505ZM232.198 302.022C208.929 270.552 195.153 231.644 195.153 189.497C195.144 84.8393 279.983 0 384.649 0C489.315 0 574.155 84.8393 574.155 189.506C574.155 231.583 560.413 270.437 537.214 301.881C530.515 298.799 525.712 294.567 521.997 289.535C495.032 256.099 475.793 234.577 471.403 229.809C461.99 219.588 457.6 218.956 450.417 215.374C448.951 214.645 448.362 214.039 447.537 212.625L410.877 148.227C408.208 142.924 404.274 138.375 399.418 134.96L390.269 128.532C388.381 127.206 385.87 127.233 384 128.585L376.457 134.073C375.833 134.521 375.289 135.074 374.841 135.697L357.552 159.756L349.14 166.342L291.126 239.933L285.813 242.216C284.707 242.69 283.732 243.445 282.995 244.394L247.714 289.518C244.562 293.443 240.145 298.58 232.19 302.013L232.198 302.022ZM546.847 242.207L536.398 234.612L540.393 222.328L529.944 229.914L519.495 222.328L523.49 234.612L513.041 242.207H525.957L529.953 254.492L533.939 242.207H546.856H546.847ZM555.197 189.506L542.913 185.51V172.594L535.326 183.043L523.042 179.056L530.638 189.506L523.042 199.955L535.326 195.968L542.913 206.417V193.501L555.197 189.514V189.506ZM525.957 136.795H513.041L523.49 144.381L519.495 156.666L529.944 149.079L540.393 156.666L536.398 144.381L546.847 136.795H533.93L529.944 124.511L525.949 136.795H525.957ZM502.75 95.7099L490.466 99.6963L502.75 103.683V116.599L510.345 106.15L522.63 110.137L515.043 99.6875L522.63 89.2385L510.345 93.2249L502.75 82.7759V95.6923V95.7099ZM467.987 63.8095L457.538 71.396H470.455L474.441 83.6803L478.427 71.396H491.344L480.895 63.8095L484.89 51.5253L474.441 59.1118L463.992 51.5253L467.978 63.8095H467.987ZM425.067 44.2022L417.48 54.6512L429.765 50.6648L437.36 61.1138V48.1974L449.644 44.2022L437.36 40.2157V27.2993L429.765 37.7483L417.48 33.7619L425.067 44.2109V44.2022ZM367.738 31.233L378.187 38.8196L374.2 51.1038L384.649 43.5085L395.098 51.1038L391.112 38.8196L401.561 31.233H388.645L384.658 18.9488L380.663 31.233H367.746H367.738ZM319.663 44.2022L331.947 48.1974V61.1138L339.534 50.6648L351.818 54.6512L344.223 44.2022L351.809 33.7531L339.525 37.7395L331.939 27.2905V40.2069L319.654 44.1934L319.663 44.2022ZM288.386 63.8095L277.937 71.396H290.854L294.84 83.6803L298.827 71.396H311.743L301.294 63.8095L305.289 51.5253L294.84 59.1118L284.391 51.5253L288.377 63.8095H288.386ZM254.256 99.7051L246.669 110.154L258.953 106.168L266.54 116.617V103.7L278.824 99.7139L266.54 95.7274V82.811L258.953 93.26L246.669 89.2736L254.256 99.7227V99.7051ZM222.443 136.795L232.892 144.381L228.906 156.666L239.355 149.079L249.804 156.666L245.809 144.381L256.258 136.795H243.341L239.355 124.511L235.359 136.795H222.443ZM214.093 189.506L226.377 193.492V206.408L233.963 195.959L246.248 199.946L238.652 189.497L246.248 179.048L233.963 183.034L226.377 172.585V185.502L214.093 189.497V189.506ZM222.443 242.207H235.359L239.355 254.492L243.341 242.207H256.258L245.809 234.612L249.804 222.328L239.355 229.914L228.906 222.328L232.892 234.612L222.443 242.207ZM447.537 262.061C447.537 262.061 463.386 280.333 467.487 287.964L475.293 300.933C482.019 301.363 500.581 301.872 518.441 301.872C516.667 300.116 515.008 298.202 513.462 296.13C482.985 258.346 463.658 237.317 463.474 237.106C457.292 230.397 454.438 229.098 449.723 226.955C449.047 226.648 448.31 226.314 447.537 225.946V231.679C447.537 232.434 446.65 232.83 446.193 232.039L401.377 153.32L401.254 153.074C399.392 149.378 396.617 146.164 393.237 143.793L388.864 140.729L367.492 190.05C370.82 190.05 373.059 193.457 371.742 196.513L351.985 242.207H370.108C377.115 242.207 384.052 243.577 390.541 246.229L395.318 248.187C395.318 248.187 380.9 277.857 380.9 293.478C380.9 296.323 381.348 299.194 382.077 301.881H415.312L413.775 292.512C413.775 292.512 433.777 297.131 453.288 299.019C454.193 297.693 455.668 294.066 452.902 287.34L444.516 264.791C443.375 261.911 445.86 260.164 447.537 262.061ZM196.838 347.093C196.838 316.571 164.481 301.881 126.048 301.881C84.9281 301.881 47.2061 320.11 33.3589 348.366C29.5393 355.856 27.5637 364.198 27.5637 372.671C27.4232 380.021 29.3988 387.23 33.3589 393.297C39.2947 402.06 49.8843 407.575 65.4349 407.575C84.5066 407.575 99.627 397.117 99.627 378.888C99.627 378.888 99.908 373.804 93.9723 373.804C89.1692 373.804 87.896 377.193 88.0365 378.888C88.7477 393.157 80.2656 404.607 65.1451 404.607C48.1896 404.607 41.1211 390.198 41.1211 374.796C41.1211 343.282 64.8642 322.375 89.5907 313.331C101.181 308.95 113.334 306.834 125.767 306.974C153.743 306.974 176.634 317.713 176.634 346.54C176.634 370.555 156.43 391.049 132.265 392.885L133.257 389.636C138.201 371.969 144.277 352.616 154.164 338.348C154.726 337.496 155.718 336.082 156.851 334.677L155.437 332.983C153.312 334.256 151.337 335.669 149.352 337.224C103.008 373.4 101.594 475.125 39.8479 475.125C37.7317 475.125 35.6068 474.984 33.4906 474.703C20.6357 472.587 13.8482 463.965 13.8482 451.961C13.8482 449.564 14.6999 446.307 14.6999 444.471C14.8404 441.082 12.013 438.114 8.62364 438.114H7.92118C2.40689 438.114 0.150242 442.487 0.00975006 448.712C-0.411725 466.66 12.8647 477.109 33.3589 479.094C35.6156 479.234 37.881 479.375 40.2781 479.375C88.458 479.375 117.988 442.917 130.57 398.697C136.928 397.995 143.294 396.573 149.361 394.746C171.69 388.521 196.838 373.549 196.838 347.128V347.093ZM645.323 381.566H656.342L654.077 386.65H642.917C642.205 388.345 638.535 396.537 634.865 405.02C630.483 415.047 625.821 425.505 625.68 425.645C622.431 433.847 620.306 439.923 620.306 444.445C620.306 448.967 622.572 450.802 626.102 450.802C629.35 450.662 632.318 449.529 634.865 447.413C639.527 444.024 644.049 438.509 648.15 432.714L651.118 435.541C646.736 441.758 641.512 448.537 635.005 453.059C630.483 456.308 625.118 458.143 619.604 458.143C611.271 458.143 605.335 453.199 605.335 443.303C605.476 439.633 606.038 436.103 607.311 432.565C601.946 439.774 591.909 449.38 582.022 449.38C575.384 449.38 572.416 445.279 572.416 439.914C572.697 435.814 573.681 431.862 575.384 428.183C577.219 423.802 579.906 418.147 583.436 410.797C587.247 402.745 591.488 394.693 591.488 391.717V391.295C591.347 390.022 590.355 389.179 589.082 389.179C581.873 389.179 574.102 399.777 566.331 417.295L552.624 448.379H535.528L540.753 436.507C534.536 443.997 528.179 449.933 519.987 449.933C512.918 449.933 511.364 445.13 511.364 440.037C511.364 438.061 511.645 436.086 512.075 434.242H511.935C505.156 443.426 495.69 449.924 488.762 449.924C481.834 449.924 478.445 445.543 478.445 439.466C478.726 435.515 479.718 431.555 481.413 428.025C484.1 421.949 487.489 414.74 490.597 408.242L493.284 402.447C491.019 403.72 488.481 404.282 485.935 404.282C484.1 404.422 482.124 404.001 480.429 403.149C479.718 409.796 477.742 416.154 474.915 422.23C467.285 439.326 454.711 450.065 439.169 450.065C426.024 450.065 421.08 442.294 420.369 433.39V430.993C411.896 442.153 404.406 449.643 394.51 449.643C386.88 449.643 384.193 445.262 384.193 440.318C384.474 436.929 385.325 433.539 386.739 430.431L402 397.934C402.843 396.239 403.414 394.254 403.554 392.279C403.554 390.444 402.843 389.592 401.148 389.592C395.493 389.592 388.004 397.082 381.225 412.483L365.393 448.379H348.016L370.337 396.801C371.048 395.247 371.61 393.552 371.75 391.857V391.436C371.61 390.303 370.618 389.451 369.485 389.592C364.963 389.592 355.778 397.793 349 413.045L333.458 448.229H316.502L321.727 436.358C314.658 444.972 309.003 449.353 301.944 449.353C295.586 449.353 292.478 444.691 292.478 439.177C292.478 437.763 292.619 436.49 292.759 435.216C288.237 440.871 279.904 449.345 271 449.345C262.097 449.345 258.286 444.261 258.426 436.059C258.426 426.304 264.081 414.441 272.414 403.132C268.875 405.397 264.924 407.092 261.394 407.092C256.863 407.092 255.178 404.695 255.178 401.578C255.178 398.46 257.724 395.08 257.724 393.807C257.724 393.385 257.443 393.104 256.872 393.104C255.178 393.104 249.11 399.321 243.736 411.333L227.483 448.212H210.958L216.182 436.2C209.685 444.252 201.624 449.345 195.556 449.345C188.637 449.345 186.372 445.244 186.372 439.598C186.512 438.465 186.653 437.341 186.934 436.209C182.552 441.863 174.922 449.353 165.456 449.353C156.983 449.353 152.742 444.269 152.882 436.068C153.023 425.891 159.099 413.458 168.003 401.736C176.054 390.856 191.315 380.258 206.998 380.258C217.596 380.258 225.929 382.102 224.665 385.061L207.287 424.618C205.733 428.016 202.906 434.514 202.906 437.192C202.906 438.887 203.749 439.598 205.022 439.598C210.677 439.598 220.985 425.04 227.211 411.052L240.347 381.382H255.608L251.086 392.261C256.451 386.044 263.809 380.109 270.017 380.109C273.275 380.109 274.539 381.663 274.539 384.069C274.539 389.293 268.744 396.081 268.744 398.487C268.744 399.189 269.165 399.76 270.298 399.76C272.423 399.76 276.655 397.354 282.45 392.551C290.643 385.632 301.803 380.258 312.682 380.258C323.562 380.258 331.622 382.102 330.349 385.061L312.972 424.478C311.84 427.165 308.872 433.803 308.872 436.49C308.872 438.184 309.723 438.896 310.988 438.896C316.643 438.896 326.67 425.048 332.896 411.061L346.032 381.391H361.582L357.06 392.419C363.979 384.508 371.61 380.126 378.959 380.126C384.755 380.126 387.582 383.094 387.582 388.74C387.582 390.013 387.582 391.146 387.301 392.419C394.229 384.789 402.983 380.126 411.044 380.126C416.839 380.126 420.369 383.797 420.369 388.889C420.369 393.692 418.253 398.504 415.145 405.845L403.984 429.579C403.422 430.993 401.719 434.813 401.719 436.507C401.719 438.202 402.571 438.913 403.844 438.913C408.928 438.913 415.285 431.142 421.361 421.106C423.767 413.194 427.157 405.704 431.538 398.645C438.177 388.468 448.213 380.135 462.341 380.135C472.509 380.135 479.437 385.93 480.429 396.81C481.132 398.083 482.686 399.356 485.935 399.356C492.722 399.356 496.955 393.561 499.501 388.617L502.89 381.268H519.987L505.147 413.625L497.938 429.448C496.946 431.704 495.682 434.821 495.682 436.516V437.087C495.822 438.36 496.955 439.203 498.079 439.062C505.007 439.062 515.745 422.528 519.987 412.782L533.684 381.276H550.93L536.802 413.633C536.802 413.633 529.031 431.862 528.46 433.135C527.889 434.409 527.608 435.541 527.468 436.815C527.468 438.228 528.038 439.071 529.452 439.071C536.09 439.071 546.689 421.694 551.922 411.236L564.917 381.566H580.89L576.648 391.734C583.146 384.956 590.215 380.293 597.986 380.293C604.914 380.293 608.444 384.675 608.444 390.189C608.444 395.703 602.789 406.864 599.259 414.072C596.853 419.016 593.604 425.804 591.628 430.466C590.074 434.417 589.653 435.691 589.653 437.113C589.653 438.536 590.496 439.089 591.909 439.089C598.267 439.089 609.295 423.968 616.355 408.567L626.251 386.668H618.058L620.464 381.584H628.376L635.014 366.604L638.834 357.7H655.789L645.331 381.584L645.323 381.566ZM197.119 409.972L207.858 385.948C199.385 385.948 191.465 392.024 185.397 400.217C176.774 412.088 169.846 426.919 169.715 435.26C169.715 438.369 171.409 439.22 173.815 439.22C180.313 439.22 189.076 428.06 197.128 409.972H197.119ZM302.672 409.972L313.411 385.948C304.929 385.948 297.018 392.024 290.95 400.217C282.328 412.088 275.408 426.919 275.268 435.26C275.408 438.369 277.103 439.22 279.5 439.22C286.147 439.22 294.48 428.482 302.672 409.972ZM462.912 386.088C459.522 386.088 456.546 388.635 452.173 394.711C442.567 408.137 435.639 427.63 434.796 435.972C434.225 440.775 435.358 444.024 439.318 444.024C442.145 444.024 445.394 442.469 449.214 437.104C458.68 423.819 466.731 401.639 467.153 392.454C467.293 388.916 466.301 386.097 462.921 386.097L462.912 386.088ZM730.864 381.566L746.415 345.627H727.993L712.434 381.566H673.28L666.756 396.634H705.91L690.35 432.573H708.772L724.331 396.634H763.476L770 381.566H730.856H730.864Z" fill="white"/>
</svg>
