<svg width="24" height="24" viewBox="0 0 24 24" fill="none" xmlns="http://www.w3.org/2000/svg">
<path d="M9.75 9.82696C9.75 9.13286 9.75 8.78582 9.89555 8.58767C10.0225 8.4149 10.2172 8.30469 10.4307 8.28488C10.6755 8.26215 10.973 8.44087 11.568 8.79831L13.9927 10.255C14.5576 10.5943 14.84 10.764 14.9359 10.9833C15.0195 11.1748 15.0195 11.3925 14.9359 11.5839C14.84 11.8033 14.5576 11.9729 13.9928 12.3123L11.568 13.769C10.973 14.1265 10.6755 14.3052 10.4307 14.2825C10.2172 14.2626 10.0225 14.1524 9.89555 13.9797C9.75 13.7815 9.75 13.4345 9.75 12.7404V9.82696Z" fill="white"/>
<path fill-rule="evenodd" clip-rule="evenodd" d="M8.94513 3.75H15.0549C16.4225 3.74998 17.5248 3.74996 18.3918 3.86652C19.2919 3.98754 20.0497 4.24643 20.6517 4.84835C21.2536 5.45027 21.5125 6.20814 21.6335 7.10825C21.75 7.97522 21.75 9.07755 21.75 10.4451V13.5549C21.75 13.5869 21.75 13.6188 21.75 13.6505V15C21.75 15.1011 21.746 15.2012 21.7382 15.3002C21.7246 15.9006 21.6956 16.4296 21.6335 16.8918C21.5125 17.7919 21.2536 18.5497 20.6517 19.1517C20.0497 19.7536 19.2919 20.0125 18.3918 20.1335C17.5248 20.25 16.4225 20.25 15.0549 20.25H8.94515C7.57755 20.25 6.47522 20.25 5.60825 20.1335C4.70814 20.0125 3.95027 19.7536 3.34835 19.1517C2.74643 18.5497 2.48754 17.7919 2.36652 16.8918C2.30439 16.4296 2.27539 15.9006 2.26184 15.3002C2.254 15.2012 2.25 15.1011 2.25 15V13.6476C2.25 13.6169 2.25 13.5859 2.25 13.5549V10.4451C2.24998 9.07755 2.24996 7.97521 2.36652 7.10825C2.48754 6.20814 2.74643 5.45027 3.34835 4.84835C3.95027 4.24643 4.70814 3.98754 5.60825 3.86652C6.47521 3.74996 7.57755 3.74998 8.94513 3.75ZM3.75 13.5C3.75 14.1581 3.75034 14.7249 3.76049 15.2186C3.87041 16.3587 4.83111 17.25 6 17.25H18C19.1689 17.25 20.1296 16.3587 20.2395 15.2186C20.2497 14.7249 20.25 14.1581 20.25 13.5V10.5C20.25 9.06459 20.2484 8.06347 20.1469 7.30812C20.0482 6.57435 19.8678 6.18577 19.591 5.90901C19.3142 5.63225 18.9257 5.4518 18.1919 5.35315C17.4365 5.25159 16.4354 5.25 15 5.25H9C7.56459 5.25 6.56347 5.25159 5.80812 5.35315C5.07435 5.4518 4.68577 5.63225 4.40901 5.90901C4.13225 6.18577 3.9518 6.57435 3.85315 7.30812C3.75159 8.06347 3.75 9.06459 3.75 10.5V13.5Z" fill="white"/>
</svg>
